<svg preserveAspectRatio="none" viewBox="0 399.36 1536 366.592" xmlns="http://www.w3.org/2000/svg" style="max-height: 500px" width="1536" height="366.592">
  <defs>
    <filter height="200%" width="200%" y="-50%" x="-50%" id="glow">
      <feGaussianBlur result="coloredBlur" stdDeviation="4"/>
      <feMerge>
        <feMergeNode in="coloredBlur"/>
        <feMergeNode in="coloredBlur"/>
        <feMergeNode in="SourceGraphic"/>
      </feMerge>
    </filter>
  </defs>
  <path fill="rgb(24, 24, 24)" d="M 0 1024 L 0 439 L 4 438 L 8 437 L 12 437 L 16 437 L 20 437 L 24 437 L 28 436 L 32 435 L 36 435 L 40 435 L 44 434 L 48 433 L 52 432 L 56 431 L 60 431 L 64 430 L 68 429 L 72 428 L 76 426 L 80 424 L 84 423 L 88 421 L 92 419 L 96 417 L 100 416 L 104 414 L 108 412 L 112 411 L 116 410 L 120 409 L 124 408 L 128 407 L 132 407 L 136 407 L 140 408 L 144 408 L 148 409 L 152 410 L 156 411 L 160 413 L 164 412 L 168 412 L 172 412 L 176 413 L 180 414 L 184 415 L 188 416 L 192 417 L 196 417 L 200 417 L 204 417 L 208 417 L 212 417 L 216 417 L 220 418 L 224 419 L 228 420 L 232 422 L 236 423 L 240 424 L 244 425 L 248 426 L 252 425 L 256 425 L 260 427 L 264 427 L 268 427 L 272 427 L 276 426 L 280 425 L 284 425 L 288 424 L 292 424 L 296 423 L 300 423 L 304 423 L 308 424 L 312 425 L 316 425 L 320 425 L 324 425 L 328 424 L 332 424 L 336 423 L 340 423 L 344 423 L 348 423 L 352 423 L 356 423 L 360 423 L 364 423 L 368 422 L 372 421 L 376 421 L 380 420 L 384 419 L 388 418 L 392 417 L 396 417 L 400 417 L 404 418 L 408 420 L 412 422 L 416 423 L 420 423 L 424 423 L 428 423 L 432 423 L 436 424 L 440 424 L 444 424 L 448 424 L 452 425 L 456 425 L 460 425 L 464 423 L 468 425 L 472 426 L 476 423 L 480 423 L 484 424 L 488 425 L 492 424 L 496 424 L 500 424 L 504 425 L 508 426 L 512 427 L 516 427 L 520 428 L 524 427 L 528 428 L 532 428 L 536 429 L 540 429 L 544 430 L 548 431 L 552 431 L 556 431 L 560 431 L 564 431 L 568 431 L 572 431 L 576 431 L 580 431 L 584 431 L 588 431 L 592 431 L 596 431 L 600 431 L 604 431 L 608 431 L 612 431 L 616 431 L 620 431 L 624 431 L 628 431 L 632 432 L 636 433 L 640 433 L 644 434 L 648 435 L 652 436 L 656 437 L 660 438 L 664 440 L 668 441 L 672 442 L 676 444 L 680 446 L 684 447 L 688 449 L 692 450 L 696 451 L 700 453 L 704 454 L 708 455 L 712 457 L 716 459 L 720 460 L 724 464 L 728 463 L 732 465 L 736 467 L 740 469 L 744 472 L 748 475 L 752 477 L 756 478 L 760 480 L 764 482 L 768 484 L 772 486 L 776 487 L 780 489 L 784 491 L 788 493 L 792 494 L 796 495 L 800 496 L 804 497 L 808 499 L 812 499 L 816 499 L 820 499 L 824 500 L 828 501 L 832 501 L 836 502 L 840 503 L 844 504 L 848 505 L 852 506 L 856 508 L 860 509 L 864 509 L 868 511 L 872 511 L 876 511 L 880 511 L 884 511 L 888 511 L 892 510 L 896 510 L 900 511 L 904 512 L 908 513 L 912 513 L 916 513 L 920 513 L 924 513 L 928 513 L 932 514 L 936 515 L 940 515 L 944 515 L 948 514 L 952 514 L 956 513 L 960 512 L 964 512 L 968 511 L 972 510 L 976 509 L 980 509 L 984 508 L 988 507 L 992 507 L 996 507 L 1000 507 L 1004 507 L 1008 507 L 1012 507 L 1016 507 L 1020 507 L 1024 507 L 1028 507 L 1032 507 L 1036 507 L 1040 508 L 1044 509 L 1048 509 L 1052 509 L 1056 510 L 1060 511 L 1064 511 L 1068 512 L 1072 513 L 1076 515 L 1080 516 L 1084 517 L 1088 517 L 1092 518 L 1096 519 L 1100 520 L 1104 520 L 1108 521 L 1112 521 L 1116 521 L 1120 521 L 1124 522 L 1128 522 L 1132 522 L 1136 523 L 1140 524 L 1144 525 L 1148 524 L 1152 523 L 1156 524 L 1160 525 L 1164 525 L 1168 525 L 1172 525 L 1176 524 L 1180 523 L 1184 523 L 1188 523 L 1192 523 L 1196 523 L 1200 523 L 1204 523 L 1208 523 L 1212 523 L 1216 523 L 1220 522 L 1224 522 L 1228 521 L 1232 519 L 1236 515 L 1240 513 L 1244 513 L 1248 513 L 1252 514 L 1256 517 L 1260 519 L 1264 519 L 1268 519 L 1272 519 L 1276 519 L 1280 519 L 1284 518 L 1288 517 L 1292 517 L 1296 518 L 1300 519 L 1304 519 L 1308 519 L 1312 520 L 1316 521 L 1320 521 L 1324 521 L 1328 521 L 1332 521 L 1336 521 L 1340 521 L 1344 521 L 1348 521 L 1352 520 L 1356 520 L 1360 519 L 1364 519 L 1368 519 L 1372 518 L 1376 517 L 1380 517 L 1384 517 L 1388 517 L 1392 517 L 1396 518 L 1400 519 L 1404 520 L 1408 521 L 1412 521 L 1416 521 L 1420 521 L 1424 522 L 1428 522 L 1432 523 L 1436 523 L 1440 523 L 1444 523 L 1448 523 L 1452 522 L 1456 521 L 1460 521 L 1464 522 L 1468 521 L 1472 521 L 1476 521 L 1480 521 L 1484 521 L 1488 522 L 1492 523 L 1496 524 L 1500 524 L 1504 525 L 1508 526 L 1512 527 L 1516 528 L 1520 529 L 1524 529 L 1528 530 L 1532 530 L 1536 530 L 1536 1024 Z"/>
  <text filter="url(#glow)" fill="white" font-weight="bold" font-size="48" font-family="Arial, sans-serif" y="480" x="240">RollReview</text>
</svg>